# xmcd
#
# Track frame offsets:
#	150
#	16500
#	52877
#
# Disc length: 1144 seconds
#
# Revision: 2
# Processed by: cddbd v1.4PL0 Copyright (c) Steve Scherf et al.
# Submitted via: dBpowerAMP V4.0
#
DISCID=12047603
DTITLE=Layo and Bushwacka! - Love Story [vs Finally] [Single]
DYEAR=2003
DGENRE=Pop
TTITLE0=Love Story [vs Finally] (Tim Deluxe Radio Mix)
TTITLE1=Love Story (Stanton Warriors Remix)
TTITLE2=Where Did We Go Wrong?
EXTD=
EXTT0=
EXTT1=
EXTT2=
PLAYORDER=
